<svg width="1052" height="298" viewBox="0 0 1052 298" fill="none" xmlns="http://www.w3.org/2000/svg">
<g clip-path="url(#clip0_2198_110)">
<path d="M856.079 44.3303C856.637 53.3078 857.195 58.9188 877.844 58.9188C881.192 58.9188 890.68 58.3577 894.586 57.7966V48.819C891.796 49.3801 887.889 49.9412 885.657 49.9412C880.076 49.9412 881.192 46.5747 881.192 44.3303V31.9861H894.586V23.0085H881.75V12.3477L856.079 16.2753V22.4474H848.824V31.425H856.079V44.3303Z" fill="black"/>
<path d="M944.815 48.8179H934.769V38.7181C934.769 35.9126 936.444 31.9849 943.699 31.9849C952.07 31.9849 952.07 35.9126 952.07 38.7181V57.7954H987.786V48.8179H981.089V37.0348C981.089 29.7405 978.299 21.8851 956.534 21.8851C946.489 21.8851 936.444 26.3739 934.769 27.4961V5.61328H901.285V14.5909H906.866V48.8179H901.285V57.7954H944.815V48.8179Z" fill="black"/>
<path d="M924.723 81.3612C878.403 81.3612 837.664 106.611 815.341 144.204C795.25 116.149 762.324 102.122 728.84 102.122C706.517 102.122 688.659 107.172 679.171 113.344L686.984 69.0171H809.76V0.00195312H628.387L600.483 158.232L659.081 184.603C668.568 174.504 680.846 163.282 702.052 163.282C728.282 163.282 748.93 183.481 748.93 207.608C748.93 234.541 729.398 253.618 698.704 253.618C671.916 253.618 652.384 237.908 634.526 219.391L584.857 271.574C590.996 280.551 599.367 289.529 609.971 297.384H792.46C800.831 291.212 808.086 283.357 814.783 274.94C819.805 282.796 825.386 290.651 831.525 297.384H1016.8C1038.57 274.379 1051.4 243.519 1051.4 209.292C1051.96 138.593 995.04 81.3612 924.723 81.3612ZM924.723 271.574C890.68 271.574 863.335 244.08 863.335 209.853C863.335 175.626 890.68 148.132 924.723 148.132C958.765 148.132 986.111 175.626 986.111 209.853C986.111 244.08 958.765 271.574 924.723 271.574Z" fill="black"/>
<path d="M46.3199 130.738C31.8101 130.738 21.2067 125.688 12.8356 117.272C0 104.366 0 90.3388 0 65.6505C0 40.9621 0 26.3736 12.8356 13.4683C21.2067 5.05184 31.8101 0.00195312 46.3199 0.00195312C69.7589 0.00195312 87.6172 14.0294 92.0817 40.9621H66.9685C64.7362 30.3013 58.0394 22.4459 46.3199 22.4459C39.623 22.4459 34.0423 24.6903 30.6939 29.1791C26.2293 34.7901 24.5551 40.9621 24.5551 65.6505C24.5551 90.3388 26.2293 96.5109 30.6939 102.122C34.0423 106.05 39.623 108.855 46.3199 108.855C58.5975 108.855 64.7362 101 67.5266 90.3388H92.0817C87.6172 117.272 69.2008 130.738 46.3199 130.738Z" fill="black"/>
<path d="M192.536 129.618L185.281 106.613H140.635L132.822 129.618H107.151L152.355 0.56543H171.329L217.091 129.618H192.536ZM163.516 39.2812L147.89 85.8524H178.584L163.516 39.2812Z" fill="black"/>
<path d="M279.596 130.74C260.621 130.74 246.112 126.813 233.834 113.907L249.46 97.6356C257.273 106.052 267.876 108.296 279.596 108.296C294.106 108.296 301.919 102.685 301.919 92.0246C301.919 87.5358 300.803 84.1692 298.012 81.3637C295.78 79.1193 292.99 77.9971 286.851 76.8749L271.783 74.6306C260.621 72.9473 253.366 69.5807 247.786 63.9697C241.647 57.7976 238.857 49.3811 238.857 38.7202C238.857 15.7152 255.599 -0.556641 282.386 -0.556641C299.686 -0.556641 311.964 3.93215 322.567 14.593L306.941 30.8649C299.128 23.0095 289.641 21.8873 281.27 21.8873C268.434 21.8873 262.296 29.1816 262.296 38.1592C262.296 41.5257 263.412 44.8923 265.644 47.1367C267.876 49.3811 271.783 51.0644 276.805 52.1866L291.873 54.431C303.035 56.1143 310.29 58.9198 315.87 64.5308C322.567 70.7029 325.358 80.2415 325.358 91.4635C325.916 116.713 305.825 130.74 279.596 130.74Z" fill="black"/>
<path d="M364.98 129.618V0.56543H389.536V129.618H364.98Z" fill="black"/>
<path d="M519.007 117.274C510.636 125.691 500.033 130.74 485.523 130.74C471.013 130.74 460.41 125.691 452.039 117.274C439.761 104.369 439.203 89.7802 439.203 65.0919C439.203 40.4035 439.203 25.815 452.039 12.9097C460.41 4.49324 471.013 -0.556641 485.523 -0.556641C500.033 -0.556641 510.636 4.49324 519.007 12.9097C531.285 25.815 531.843 40.4035 531.843 65.0919C531.843 89.7802 531.843 104.369 519.007 117.274ZM501.707 29.1816C497.801 25.2539 492.778 22.4484 486.081 22.4484C479.384 22.4484 473.804 25.2539 470.455 29.1816C465.991 34.7926 464.316 40.9646 464.316 65.0919C464.316 89.2191 465.991 95.3912 470.455 101.002C474.362 104.93 479.384 108.296 486.081 108.296C492.778 108.296 498.359 105.491 501.707 101.002C506.172 95.3912 507.846 89.7802 507.846 65.0919C507.846 40.4035 506.172 34.7926 501.707 29.1816Z" fill="black"/>
<path d="M119.985 296.267H99.8947L77.0138 218.275L53.5748 296.267H33.4843L0 167.215H25.6713L44.6457 248.574L67.5266 167.215H85.9429L108.824 248.574L128.356 167.215H154.028L119.985 296.267Z" fill="black"/>
<path d="M222.669 296.267L215.414 273.262H170.768L162.955 296.267H137.284L182.487 167.215H201.462L247.224 296.267H222.669ZM193.649 205.37L178.023 252.502H209.275L193.649 205.37Z" fill="black"/>
<path d="M291.869 189.659V296.267H267.314V189.659H234.946V167.215H324.795V189.659H291.869Z" fill="black"/>
<path d="M377.816 297.388C363.306 297.388 352.703 292.338 344.332 283.921C332.054 271.016 331.496 256.428 331.496 231.739C331.496 207.051 331.496 192.462 344.332 179.557C352.703 171.141 363.306 166.091 377.816 166.091C401.255 166.091 419.113 180.118 423.578 207.051H398.465C396.232 196.39 389.535 188.535 377.816 188.535C371.119 188.535 365.538 191.34 362.19 195.268C357.725 200.879 356.051 207.051 356.051 231.739C356.051 256.428 357.725 262.6 362.19 268.211C365.538 272.138 371.119 274.944 377.816 274.944C390.094 274.944 396.232 267.089 399.023 256.428H423.578C419.113 283.36 400.697 297.388 377.816 297.388Z" fill="black"/>
<path d="M507.845 296.267V242.402H465.432V296.267H440.876V167.215H465.432V219.958H507.845V167.215H532.4V296.267H507.845Z" fill="black"/>
</g>
<defs>
<clipPath id="clip0_2198_110">
<rect width="1051.96" height="297.382" fill="white"/>
</clipPath>
</defs>
</svg>
