<svg width="56" height="56" viewBox="0 0 56 56" fill="none" xmlns="http://www.w3.org/2000/svg">
<g clip-path="url(#clip0_1981_166)">
<g clip-path="url(#clip1_1981_166)">
<path d="M25.2586 55.2254C25.0477 55.2092 24.8206 55.177 24.6097 55.1447L24.9017 52.9014C25.0964 52.9337 25.3072 52.9499 25.5019 52.966L25.2586 55.2254ZM30.8716 55.2254L30.6444 52.9821C30.8391 52.966 31.05 52.9337 31.2447 52.9176L31.5367 55.1608C31.3096 55.1769 31.0825 55.2092 30.8716 55.2254ZM24.2528 55.1124H24.2203C24.0095 55.0801 23.7986 55.0478 23.5877 55.0156L23.9608 52.7885C24.1555 52.8208 24.3501 52.853 24.5448 52.8853H24.5772L24.3988 53.8536L24.2528 55.1124ZM31.9098 55.0963L31.5853 52.853C31.78 52.8208 31.9747 52.7885 32.1856 52.7562L32.5587 54.9833C32.3478 55.0317 32.1207 55.064 31.9098 55.0963ZM23.1821 54.9349C22.9712 54.9026 22.7441 54.8542 22.5332 54.8058L22.9874 52.5948C23.1821 52.6271 23.3768 52.6755 23.5714 52.7078L23.1821 54.9349ZM32.948 54.9349L32.5425 52.7078C32.7371 52.6755 32.9318 52.6271 33.1265 52.5948L33.5807 54.8058C33.3698 54.8542 33.1589 54.8865 32.948 54.9349ZM22.1601 54.7412C21.9492 54.6928 21.7383 54.6444 21.5274 54.596L22.0628 52.4012C22.2574 52.4496 22.4521 52.498 22.6468 52.5303L22.1601 54.7412ZM33.9701 54.7251L33.4672 52.5141C33.6618 52.4657 33.8565 52.4173 34.0512 52.385L34.6027 54.5798C34.3918 54.6283 34.1809 54.6767 33.9701 54.7251ZM21.1381 54.4991C20.9272 54.4507 20.7163 54.3862 20.5054 54.3216L21.1218 52.1429C21.3165 52.1914 21.5112 52.2559 21.7059 52.3043L21.1381 54.4991ZM34.9758 54.483L34.3918 52.3043C34.5865 52.2559 34.7812 52.2075 34.9758 52.1429L35.6085 54.3055C35.3976 54.37 35.1867 54.4185 34.9758 54.483ZM20.1323 54.2087C19.9214 54.1441 19.7105 54.0795 19.4996 54.015L20.2134 51.8686C20.4081 51.9331 20.6027 51.9977 20.7812 52.0461L20.1323 54.2087ZM35.9816 54.1925L35.3165 52.03C35.5112 51.9654 35.7059 51.917 35.8843 51.8525L36.5981 53.9989C36.4034 54.0634 36.1925 54.128 35.9816 54.1925ZM19.1427 53.902C18.9318 53.8375 18.7371 53.7568 18.5263 53.6761L19.3212 51.562C19.5158 51.6265 19.6943 51.6911 19.8889 51.7556L19.1427 53.902ZM36.9712 53.8697L36.225 51.7395C36.4196 51.6749 36.5981 51.6104 36.7928 51.5297L37.5877 53.6438C37.393 53.7245 37.1821 53.8052 36.9712 53.8697ZM18.1531 53.547C17.9422 53.4663 17.7476 53.3856 17.5367 53.3049L18.4127 51.2231C18.5911 51.3038 18.7858 51.3683 18.9643 51.449L18.1531 53.547ZM37.9608 53.5147L37.1334 51.4167C37.3119 51.336 37.5066 51.2715 37.685 51.1908L38.561 53.2726C38.3663 53.3533 38.1555 53.434 37.9608 53.5147ZM17.1798 53.1435C16.9851 53.0628 16.7742 52.966 16.5796 52.8692L17.5367 50.8196C17.7151 50.9003 17.9098 50.981 18.0882 51.0617L17.1798 53.1435ZM38.9179 53.1112L38.0094 51.0455C38.1879 50.9648 38.3826 50.8842 38.561 50.8035L39.5181 52.853C39.3235 52.9337 39.1288 53.0306 38.9179 53.1112ZM16.2227 52.7078C16.028 52.611 15.8333 52.5141 15.6387 52.4173L16.6607 50.4C16.8391 50.4968 17.0176 50.5775 17.196 50.6582L16.2227 52.7078ZM39.875 52.6755L38.8855 50.6421C39.0639 50.5614 39.2424 50.4646 39.4208 50.3839L40.459 52.4012C40.2644 52.498 40.0697 52.5948 39.875 52.6755ZM15.298 52.2398C15.1033 52.1429 14.9086 52.03 14.714 51.9331L15.8171 49.9643C15.9955 50.0611 16.174 50.1579 16.3524 50.2548L15.298 52.2398ZM40.7997 52.2075L39.729 50.2063C39.9075 50.1095 40.0859 50.0127 40.2644 49.9159L41.3837 51.8847C41.1891 52.0138 40.9944 52.1107 40.7997 52.2075ZM14.3733 51.7395C14.1786 51.6265 14.0002 51.5136 13.8055 51.4006L14.9898 49.4801C15.1682 49.577 15.3304 49.6899 15.5089 49.7867L14.3733 51.7395ZM41.7244 51.7072L40.5888 49.7545C40.7673 49.6576 40.9295 49.5447 41.1079 49.4478L42.2922 51.3683C42.0975 51.4813 41.9028 51.5942 41.7244 51.7072ZM13.4648 51.2069C13.2864 51.094 13.0917 50.9648 12.9133 50.8519L14.1624 48.9637C14.3246 49.0767 14.5031 49.1896 14.6653 49.2865L13.4648 51.2069ZM42.6166 51.1746L41.3999 49.2703C41.5622 49.1574 41.7406 49.0605 41.9028 48.9476L43.1682 50.8196C42.9735 50.9326 42.7951 51.0455 42.6166 51.1746ZM12.5888 50.6259C12.4104 50.4968 12.2319 50.3839 12.0535 50.2548L13.3837 48.415C13.546 48.528 13.7082 48.6409 13.8704 48.7539L12.5888 50.6259ZM43.4926 50.5937L42.2111 48.7378C42.3733 48.6248 42.5355 48.5118 42.6977 48.3989L44.028 50.2225C43.8495 50.3516 43.6711 50.4646 43.4926 50.5937ZM11.7453 50.0288C11.5668 49.8997 11.3884 49.7706 11.2261 49.6254L12.6213 47.8502C12.7835 47.9793 12.9457 48.0922 13.1079 48.2213L11.7453 50.0288ZM44.3362 49.9965L42.9735 48.1891C43.1357 48.0761 43.298 47.947 43.4602 47.8179L44.8553 49.5931C44.6931 49.7222 44.5147 49.8674 44.3362 49.9965ZM10.9179 49.3833C10.7395 49.2542 10.5772 49.1089 10.415 48.9637L11.875 47.2369C12.021 47.366 12.1833 47.4951 12.3455 47.6242L10.9179 49.3833ZM45.1636 49.351L43.736 47.5919C43.8982 47.4628 44.0442 47.3337 44.2064 47.2046L45.6665 48.9314C45.5042 49.0767 45.342 49.2219 45.1636 49.351ZM10.1068 48.7216C9.94456 48.5764 9.78234 48.4311 9.62011 48.2859L11.145 46.6236C11.291 46.7527 11.437 46.898 11.5993 47.0271L10.1068 48.7216ZM45.9747 48.6893L44.4822 46.9787C44.6282 46.8496 44.7904 46.7205 44.9364 46.5752L46.4614 48.2375C46.2991 48.3989 46.1369 48.5441 45.9747 48.6893ZM9.32811 48.0115C9.16588 47.8663 9.00366 47.7049 8.85765 47.5597L10.4475 45.9458C10.5935 46.0911 10.7395 46.2202 10.8855 46.3654L9.32811 48.0115ZM46.7371 47.9793L45.1798 46.3331C45.3258 46.204 45.4718 46.0588 45.6178 45.9136L47.2076 47.5274C47.0616 47.6888 46.8994 47.834 46.7371 47.9793ZM8.58187 47.2853C8.43587 47.1239 8.27364 46.9787 8.12764 46.8173L9.78234 45.268C9.91212 45.4133 10.0581 45.5585 10.2041 45.7038L8.58187 47.2853ZM47.4996 47.253L45.8773 45.6715C46.0233 45.5262 46.1531 45.381 46.2991 45.2357L47.9538 46.785C47.7916 46.9464 47.6456 47.1078 47.4996 47.253ZM7.86808 46.5429C7.72208 46.3816 7.57608 46.2202 7.43008 46.0588L9.14966 44.5741C9.27944 44.7193 9.40922 44.8807 9.55522 45.0259L7.86808 46.5429ZM48.2134 46.5107L46.5425 44.9937C46.6722 44.8484 46.8183 44.7032 46.948 44.5418L48.6676 46.0265C48.5054 46.1718 48.3594 46.3493 48.2134 46.5107ZM7.17052 45.7522C7.02451 45.5908 6.89473 45.4133 6.74873 45.2519L8.51698 43.8317C8.64676 43.9931 8.77654 44.1383 8.90632 44.2997L7.17052 45.7522ZM48.911 45.7199L47.1751 44.2674C47.3049 44.1222 47.4347 43.9608 47.5645 43.7994L49.3327 45.2196C49.1867 45.381 49.0407 45.5585 48.911 45.7199ZM6.50539 44.9453C6.37561 44.7677 6.22961 44.6063 6.09983 44.4288L7.91675 43.0732C8.03031 43.2346 8.16009 43.396 8.28987 43.5412L6.50539 44.9453ZM49.5599 44.913L47.7754 43.5251C47.9052 43.3637 48.0187 43.2023 48.1485 43.0409L49.9654 44.3965C49.8356 44.5741 49.7059 44.7355 49.5599 44.913ZM5.88894 44.1222C5.75916 43.9447 5.62938 43.7672 5.51582 43.5896L7.38141 42.3147C7.49497 42.4761 7.60852 42.6375 7.72208 42.7989L5.88894 44.1222ZM50.1925 44.0738L48.3432 42.7504C48.4567 42.5891 48.5703 42.4277 48.6838 42.2663L50.5656 43.5412C50.4521 43.7187 50.3223 43.8963 50.1925 44.0738ZM5.28871 43.2669C5.17515 43.0893 5.04537 42.8957 4.93181 42.7182L6.84607 41.5078C6.95962 41.6692 7.05696 41.8467 7.17052 42.0081L5.28871 43.2669ZM50.7928 43.2184L48.8947 41.9597C49.0083 41.7983 49.1218 41.6208 49.2192 41.4594L51.1334 42.6697C51.0361 42.8473 50.9063 43.0409 50.7928 43.2184ZM4.72092 42.3793C4.60737 42.2017 4.49381 42.0081 4.38025 41.8144L6.34317 40.6847C6.4405 40.8623 6.55406 41.0236 6.6514 41.2012L4.72092 42.3793ZM51.3605 42.347L49.4301 41.1689C49.5274 40.9914 49.641 40.83 49.7383 40.6525L51.7012 41.7821C51.5877 41.9597 51.4741 42.1533 51.3605 42.347ZM4.18558 41.4916C4.07202 41.298 3.97469 41.1043 3.87735 40.9268L5.88894 39.8617C5.98628 40.0392 6.08361 40.2167 6.18095 40.3942L4.18558 41.4916ZM51.8797 41.4432L49.9005 40.3458C49.9979 40.1683 50.0952 39.9908 50.1925 39.8133L52.2041 40.8623C52.0906 41.0559 51.9932 41.2496 51.8797 41.4432ZM3.69891 40.5718C3.60157 40.3781 3.50424 40.1844 3.4069 39.9908L5.45093 39.0063C5.53205 39.1839 5.62938 39.3614 5.72672 39.5389L3.69891 40.5718ZM52.3826 40.5072L50.3548 39.4905C50.4521 39.313 50.5332 39.1355 50.6143 38.9579L52.6583 39.9262C52.5772 40.1199 52.4799 40.3136 52.3826 40.5072ZM3.24468 39.6357C3.14734 39.4421 3.06623 39.2484 2.96889 39.0386L5.04537 38.1349C5.12648 38.3124 5.2076 38.5061 5.28871 38.6836L3.24468 39.6357ZM52.8368 39.5712L50.7765 38.619C50.8576 38.4415 50.9388 38.2478 51.0199 38.0703L53.1126 38.9579C53.0152 39.1839 52.9341 39.3775 52.8368 39.5712ZM2.82289 38.6836C2.74178 38.4899 2.66067 38.2801 2.57956 38.0865L4.68848 37.2634C4.76959 37.4571 4.83448 37.6346 4.91559 37.8121L2.82289 38.6836ZM53.2586 38.619L51.1659 37.7476C51.247 37.57 51.3119 37.3764 51.393 37.1989L53.5181 38.0058C53.4208 38.2156 53.3397 38.4254 53.2586 38.619ZM2.43355 37.7153C2.35244 37.5055 2.28755 37.3118 2.20644 37.102L4.34781 36.3597C4.4127 36.5533 4.47759 36.7308 4.5587 36.9245L2.43355 37.7153ZM53.6479 37.6507L51.5228 36.8599C51.5877 36.6663 51.6525 36.4888 51.7174 36.2951L53.8588 37.0213C53.7939 37.2473 53.7128 37.4409 53.6479 37.6507ZM2.07666 36.747C2.01177 36.5372 1.94688 36.3274 1.88199 36.1337L4.0558 35.4721C4.12069 35.6657 4.16936 35.8594 4.23425 36.0369L2.07666 36.747ZM53.9886 36.6663L51.831 35.9562C51.8959 35.7625 51.9608 35.5689 52.0094 35.3914L54.1833 36.0369C54.1184 36.2467 54.0535 36.4565 53.9886 36.6663ZM1.76843 35.7464C1.70354 35.5366 1.65487 35.3268 1.58998 35.117L3.78002 34.536C3.82869 34.7297 3.87735 34.9234 3.94224 35.117L1.76843 35.7464ZM54.2968 35.6657L52.1068 35.0525C52.1554 34.8588 52.2203 34.6651 52.269 34.4715L54.4753 35.0363C54.4104 35.2461 54.3455 35.4559 54.2968 35.6657ZM1.49265 34.7458C1.44398 34.536 1.39531 34.3262 1.34665 34.1164L3.56913 33.6161C3.61779 33.8098 3.66646 34.0035 3.71513 34.1971L1.49265 34.7458ZM54.5564 34.6651L52.3501 34.1326C52.3988 33.9389 52.4475 33.7453 52.4799 33.5516L54.7024 34.0357C54.6537 34.2455 54.605 34.4553 54.5564 34.6651ZM1.26553 33.7291C1.21687 33.5193 1.18442 33.3095 1.13575 33.0836L3.37446 32.6801C3.4069 32.8738 3.45557 33.0674 3.48801 33.2611L1.26553 33.7291ZM54.7835 33.6484L52.561 33.1965C52.5935 33.0029 52.6421 32.8092 52.6746 32.6156L54.9133 33.019C54.8646 33.2288 54.8322 33.4386 54.7835 33.6484ZM1.07086 32.7124C1.03842 32.5026 1.00597 32.2767 0.97353 32.0669L3.22845 31.7441C3.2609 31.9378 3.29334 32.1314 3.32579 32.3412L1.07086 32.7124ZM54.9782 32.6317L52.7395 32.2605C52.7719 32.0669 52.8043 31.8732 52.8368 31.6634V31.6311L55.0917 31.9539V31.9862C55.043 32.196 55.0106 32.4058 54.9782 32.6317ZM0.924862 31.6795C0.892417 31.4697 0.876195 31.2438 0.84375 31.034L3.09867 30.8081C3.1149 31.0017 3.14734 31.2115 3.16356 31.4052L0.924862 31.6795ZM55.1242 31.5504L52.8692 31.2761C52.9017 31.0824 52.9179 30.8726 52.9341 30.679L55.1891 30.9049C55.1891 31.1308 55.1566 31.3406 55.1242 31.5504ZM3.09867 25.6761L0.84375 25.4501C0.859972 25.2404 0.892417 25.0144 0.924862 24.8046L3.17979 25.0951C3.14734 25.2888 3.1149 25.4824 3.09867 25.6761ZM52.9341 25.5631C52.9179 25.3695 52.8855 25.1597 52.8692 24.966L55.1242 24.6755C55.1566 24.8853 55.1728 25.1112 55.2053 25.321L52.9341 25.5631ZM3.21223 24.7239L0.957307 24.4173V24.4012C0.989752 24.1752 1.0222 23.9654 1.05464 23.7718L3.29334 24.1429C3.27712 24.3366 3.24468 24.5303 3.21223 24.7239ZM52.8206 24.611C52.7881 24.4173 52.7557 24.2236 52.7232 24.0138L54.9619 23.6427C54.9944 23.8525 55.0268 24.0784 55.0593 24.2882L52.8206 24.611ZM3.35823 23.7879L1.13575 23.3844C1.1682 23.1746 1.21687 22.9487 1.26553 22.7389L3.48801 23.1908C3.43935 23.4006 3.4069 23.5942 3.35823 23.7879ZM52.6583 23.6749C52.6259 23.4813 52.5772 23.2876 52.5448 23.094L54.7673 22.6259C54.8159 22.8357 54.8484 23.0455 54.897 23.2715L52.6583 23.6749ZM3.5529 22.8519L1.33042 22.3677C1.37909 22.1579 1.42776 21.9481 1.47643 21.7383L3.68268 22.2709C3.63402 22.4646 3.60157 22.6582 3.5529 22.8519ZM52.4799 22.7389C52.4312 22.5453 52.3826 22.3516 52.3339 22.1579L54.5402 21.6092C54.5888 21.819 54.6375 22.0288 54.6862 22.2386L52.4799 22.7389ZM3.78002 21.9159L1.57376 21.351C1.62243 21.1412 1.68732 20.9314 1.75221 20.7216L3.94224 21.3349C3.87735 21.5447 3.82869 21.7222 3.78002 21.9159ZM52.2528 21.819C52.2041 21.6254 52.1554 21.4317 52.0906 21.238L54.2644 20.6087C54.3293 20.8185 54.3779 21.0283 54.4428 21.238L52.2528 21.819ZM4.02336 21.0121L1.84954 20.3666C1.91443 20.1568 1.97932 19.947 2.04421 19.7372L4.2018 20.4311C4.15314 20.6248 4.08825 20.8185 4.02336 21.0121ZM51.977 20.8991C51.9121 20.7055 51.8634 20.5118 51.7986 20.3343L53.9561 19.6242C54.021 19.834 54.0859 20.0438 54.1508 20.2375L51.977 20.8991ZM4.33158 20.0922L2.17399 19.366C2.23888 19.1562 2.32 18.9464 2.40111 18.7527L4.52625 19.5435C4.46136 19.721 4.39647 19.8986 4.33158 20.0922ZM51.685 19.9954C51.6201 19.8017 51.5552 19.6242 51.4741 19.4306L53.5992 18.6398C53.6804 18.8496 53.7452 19.0432 53.8264 19.253L51.685 19.9954ZM4.65603 19.2046L2.53089 18.3977C2.612 18.1879 2.69311 17.9942 2.77423 17.7844L4.86692 18.6559C4.80203 18.8334 4.72092 19.011 4.65603 19.2046ZM51.3443 19.1078C51.2632 18.9303 51.1983 18.7366 51.1172 18.5591L53.2099 17.6876C53.291 17.8813 53.3721 18.0911 53.4532 18.2847L51.3443 19.1078ZM5.01293 18.317L2.92023 17.4294C3.00134 17.2357 3.09867 17.0259 3.19601 16.8323L5.25626 17.7844C5.17515 17.9458 5.09404 18.1234 5.01293 18.317ZM50.9874 18.2202C50.9063 18.0427 50.8252 17.849 50.7441 17.6715L52.8043 16.7193C52.9017 16.913 52.9828 17.1066 53.0801 17.3164L50.9874 18.2202ZM5.41849 17.4455L3.37446 16.4772C3.47179 16.2836 3.56913 16.0899 3.66646 15.8963L5.69427 16.913C5.58071 17.0744 5.4996 17.268 5.41849 17.4455ZM50.5819 17.3648C50.5008 17.1873 50.4034 17.0098 50.3061 16.8323L52.3339 15.7994C52.4312 15.9931 52.5286 16.1868 52.6259 16.3804L50.5819 17.3648ZM5.84027 16.5902L3.82869 15.5412C3.92602 15.3476 4.03958 15.1539 4.13691 14.9602L6.11606 16.0576C6.03494 16.2352 5.93761 16.4127 5.84027 16.5902ZM50.1439 16.5095C50.0465 16.332 49.9492 16.1545 49.8519 15.977L51.831 14.8634C51.9446 15.0571 52.0419 15.2507 52.1392 15.4282L50.1439 16.5095ZM6.31073 15.751L4.34781 14.6213C4.46136 14.4277 4.57492 14.2502 4.68848 14.0565L6.63517 15.2346C6.5054 15.396 6.40806 15.5735 6.31073 15.751ZM49.6896 15.6703C49.5923 15.4928 49.4787 15.3314 49.3814 15.1539L51.3119 13.9758C51.4254 14.1533 51.539 14.347 51.6525 14.5406L49.6896 15.6703ZM6.7974 14.928L4.86692 13.7176C4.98048 13.5401 5.11026 13.3464 5.22382 13.1689L7.13807 14.4277C7.02451 14.5891 6.91096 14.7666 6.7974 14.928ZM49.1867 14.8634C49.0732 14.702 48.9758 14.5245 48.8623 14.3631L50.7441 13.1043C50.8576 13.2819 50.9874 13.4755 51.101 13.653L49.1867 14.8634ZM7.33274 14.1372L5.45093 12.8623C5.58071 12.6847 5.69427 12.5072 5.82405 12.3297L7.67341 13.653C7.55986 13.7983 7.4463 13.9597 7.33274 14.1372ZM48.6514 14.0565C48.5378 13.8951 48.4243 13.7337 48.3107 13.5723L50.1439 12.249C50.2736 12.4265 50.4034 12.604 50.517 12.7816L48.6514 14.0565ZM7.88431 13.3464L6.06739 12.0069C6.19717 11.8294 6.32695 11.6519 6.47295 11.4905L8.25742 12.8784C8.12764 13.0236 8.01409 13.185 7.88431 13.3464ZM48.0998 13.2819C47.9863 13.1205 47.8565 12.9591 47.7267 12.8138L49.5112 11.4259C49.641 11.6035 49.787 11.7648 49.9167 11.9424L48.0998 13.2819ZM8.48454 12.5879L6.71629 11.1677C6.84607 10.9902 6.99207 10.8288 7.13807 10.6674L8.87388 12.1199C8.72787 12.2813 8.59809 12.4427 8.48454 12.5879ZM47.5158 12.5395C47.386 12.3781 47.2563 12.2329 47.1265 12.0715L48.8623 10.6029C49.0083 10.7643 49.1381 10.9418 49.2841 11.1032L47.5158 12.5395ZM9.10099 11.8617L7.38141 10.377C7.52741 10.2156 7.67341 10.0542 7.81942 9.8928L9.49033 11.4098C9.36055 11.555 9.23077 11.7164 9.10099 11.8617ZM46.8994 11.7971C46.7696 11.6519 46.6398 11.4905 46.4938 11.3453L48.1647 9.81211C48.3107 9.97349 48.4567 10.1349 48.6027 10.2963L46.8994 11.7971ZM9.73367 11.1516L8.07898 9.60231C8.22498 9.44093 8.3872 9.27955 8.5332 9.1343L10.1555 10.7159C10.0094 10.8611 9.87967 11.0063 9.73367 11.1516ZM46.2505 11.087C46.1207 10.9418 45.9747 10.7965 45.8287 10.6513L47.4509 9.06975C47.5969 9.23113 47.7592 9.37638 47.9052 9.53776L46.2505 11.087ZM10.415 10.4738L8.82521 8.85995C8.98743 8.7147 9.13344 8.55332 9.29566 8.40808L10.853 10.0542C10.6908 10.1833 10.5448 10.3285 10.415 10.4738ZM45.5691 10.4092C45.4231 10.264 45.2771 10.1349 45.1311 9.98963L46.6885 8.34352C46.8507 8.48877 47.0129 8.65015 47.1589 8.7954L45.5691 10.4092ZM11.1126 9.81211L9.57144 8.14986C9.73367 8.00462 9.89589 7.85937 10.0581 7.71413L11.5506 9.42479C11.4046 9.53776 11.2586 9.66687 11.1126 9.81211ZM44.8716 9.74756C44.7256 9.61845 44.5795 9.47321 44.4173 9.3441L45.9098 7.63344C46.072 7.77868 46.2342 7.92393 46.3965 8.06917L44.8716 9.74756ZM11.8264 9.18272L10.3663 7.45592C10.5286 7.31067 10.707 7.18156 10.8692 7.03632L12.2968 8.7954C12.1346 8.9245 11.9724 9.05361 11.8264 9.18272ZM44.1578 9.11816C44.0118 8.98906 43.8495 8.85995 43.6873 8.73084L45.1149 6.97177C45.2933 7.10087 45.4556 7.24612 45.6178 7.39136L44.1578 9.11816ZM12.5726 8.56946L11.1775 6.79424C11.3559 6.66514 11.5181 6.51989 11.6966 6.39079L13.0593 8.19828C12.8808 8.32738 12.7348 8.45649 12.5726 8.56946ZM43.4115 8.52104C43.2493 8.39194 43.0871 8.27897 42.9249 8.166L44.2713 6.35851C44.4498 6.48762 44.6282 6.61672 44.7904 6.76197L43.4115 8.52104ZM13.3351 8.00462L12.0048 6.16485C12.1833 6.03574 12.3617 5.90664 12.5402 5.79367L13.8217 7.64958C13.6595 7.76254 13.4973 7.89165 13.3351 8.00462ZM42.6329 7.94006C42.4706 7.8271 42.3084 7.71413 42.1462 7.60116L43.4278 5.72911C43.6062 5.85822 43.7846 5.97119 43.9631 6.10029L42.6329 7.94006ZM14.13 7.45592L12.8646 5.58387C13.0431 5.4709 13.2377 5.34179 13.4162 5.22883L14.6329 7.13315C14.4544 7.22998 14.2922 7.34295 14.13 7.45592ZM41.8542 7.4075C41.692 7.29453 41.5135 7.18156 41.3513 7.08473L42.568 5.16427C42.7464 5.27724 42.9411 5.40635 43.1195 5.51932L41.8542 7.4075ZM14.9249 6.93949L13.7406 5.01903C13.9191 4.90606 14.1137 4.79309 14.3084 4.68012L15.444 6.63286C15.2818 6.72969 15.1033 6.84266 14.9249 6.93949ZM41.0431 6.89107C40.8646 6.79424 40.7024 6.68128 40.5239 6.58445L41.6595 4.63171C41.8542 4.74468 42.0326 4.85764 42.2273 4.97061L41.0431 6.89107ZM15.7522 6.45534L14.6329 4.48646C14.8275 4.37349 15.0222 4.27666 15.2006 4.17983L16.2713 6.18099C16.1091 6.26168 15.9307 6.35851 15.7522 6.45534ZM40.1995 6.40692C40.021 6.31009 39.8426 6.21326 39.6641 6.11643L40.7186 4.11528C40.9133 4.21211 41.1079 4.32508 41.3026 4.42191L40.1995 6.40692ZM16.5958 6.00347L15.5738 4.00231C15.7684 3.90548 15.9631 3.80865 16.1578 3.71182L17.1473 5.74525C16.9527 5.82594 16.7742 5.92277 16.5958 6.00347ZM39.3559 5.95505C39.1775 5.85822 38.999 5.77753 38.8206 5.69684L39.7939 3.66341C39.9886 3.76024 40.1833 3.85707 40.3779 3.9539L39.3559 5.95505ZM17.4718 5.58387L16.5147 3.5343C16.7093 3.43747 16.904 3.35678 17.1149 3.25995L18.0234 5.32566C17.8287 5.42249 17.6502 5.50318 17.4718 5.58387ZM38.4961 5.53545C38.3177 5.45476 38.123 5.37407 37.9446 5.29338L38.8368 3.21153C39.0315 3.29223 39.2424 3.38906 39.437 3.48589L38.4961 5.53545ZM18.3316 5.19655L17.4556 3.1147C17.6502 3.03401 17.8611 2.95332 18.0558 2.87263L18.8831 4.97061C18.7047 5.0513 18.5263 5.132 18.3316 5.19655ZM37.6039 5.16427C37.4254 5.08358 37.2308 5.01903 37.0523 4.93834L37.8634 2.82421C38.0743 2.90491 38.269 2.9856 38.4799 3.06629L37.6039 5.16427ZM19.2238 4.85764L18.4289 2.74352C18.6398 2.66283 18.8345 2.59828 19.0454 2.51759L19.7916 4.64785C19.5969 4.7124 19.4185 4.77695 19.2238 4.85764ZM36.7117 4.80923C36.517 4.74468 36.3385 4.68012 36.1439 4.61557L36.8739 2.48531C37.0848 2.54986 37.2794 2.63055 37.4903 2.71125L36.7117 4.80923ZM20.1323 4.53488L19.4185 2.38848C19.6294 2.32393 19.8403 2.25937 20.0349 2.19482L20.7001 4.35736C20.5054 4.40577 20.3269 4.47032 20.1323 4.53488ZM35.8032 4.5026C35.6085 4.43805 35.4139 4.37349 35.2354 4.32508L35.8843 2.16254C36.0952 2.2271 36.3061 2.29165 36.517 2.3562L35.8032 4.5026ZM21.0407 4.24439L20.4081 2.08185C20.619 2.0173 20.8298 1.96888 21.0407 1.90433L21.6247 4.083C21.4301 4.14756 21.2354 4.19597 21.0407 4.24439ZM34.8947 4.22825C34.7001 4.17983 34.5054 4.11528 34.3107 4.06687L34.8785 1.87205C35.0894 1.92047 35.3003 1.98502 35.5112 2.04957L34.8947 4.22825ZM21.9654 4.00231L21.4139 1.8075C21.6247 1.75908 21.8356 1.71067 22.0465 1.66225L22.5494 3.87321C22.3548 3.90548 22.1601 3.9539 21.9654 4.00231ZM33.9701 3.98617C33.7754 3.93776 33.5807 3.88934 33.386 3.85707L33.8727 1.64612C34.0836 1.69453 34.2945 1.74295 34.5054 1.79136L33.9701 3.98617ZM22.9063 3.79251L22.4359 1.58156C22.6468 1.53315 22.8577 1.50087 23.0848 1.45246L23.4903 3.67955C23.2957 3.71182 23.101 3.7441 22.9063 3.79251ZM33.0291 3.77638C32.8345 3.7441 32.6398 3.69568 32.4451 3.66341L32.8507 1.43632C33.0616 1.46859 33.2887 1.51701 33.4996 1.56542L33.0291 3.77638ZM23.8472 3.61499L23.4741 1.3879C23.685 1.35563 23.9121 1.32335 24.123 1.29107L24.4475 3.5343C24.2366 3.55044 24.0419 3.58272 23.8472 3.61499ZM32.0882 3.59885C31.8936 3.56658 31.7151 3.5343 31.5205 3.51816H31.488L31.7962 1.27493H31.8287C32.0396 1.30721 32.2505 1.33949 32.4451 1.37176L32.0882 3.59885ZM24.7881 3.46975L24.4961 1.22652C24.707 1.19424 24.9341 1.1781 25.145 1.14583L25.3884 3.38906C25.1937 3.42133 24.9828 3.43747 24.7881 3.46975ZM31.1311 3.46975C30.9364 3.43747 30.7256 3.42133 30.5309 3.40519L30.758 1.16197C30.9689 1.1781 31.196 1.21038 31.4069 1.24266L31.1311 3.46975Z" fill="#BE2A2A"/>
<path d="M28.0164 0L28.4544 1.33948H29.8819L28.7301 2.17867L29.1682 3.51816L28.0164 2.67896L26.8646 3.51816L27.3026 2.17867L26.167 1.33948H27.5783L28.0164 0Z" fill="white"/>
<path d="M28.0164 52.4818L28.4544 53.8213H29.8819L28.7301 54.6605L29.1682 56L28.0164 55.1608L26.8646 56L27.3026 54.6605L26.167 53.8213H27.5783L28.0164 52.4818Z" fill="white"/>
<path d="M54.1507 26.2893L54.5888 27.6288H56.0001L54.8483 28.4519L55.2863 29.7914L54.1507 28.9683L52.9989 29.7914L53.437 28.4519L52.2852 27.6288H53.6965L54.1507 26.2893Z" fill="white"/>
<path d="M1.84936 26.2893L2.30359 27.6288H3.71495L2.56315 28.4519L3.00116 29.7914L1.84936 28.9683L0.713789 29.7914L1.1518 28.4519L0 27.6288H1.41136L1.84936 26.2893Z" fill="white"/>
<path d="M28.016 4.68011C14.9569 4.68011 4.37988 15.2023 4.37988 28.1937C4.37988 41.1689 14.9569 51.6911 27.9998 51.6911C41.0427 51.6911 51.6197 41.1689 51.6197 28.1937C51.636 15.2023 41.0589 4.68011 28.016 4.68011ZM37.2628 11.6519H42.0647L45.731 15.5251V24.7723L38.6418 20.5602V18.9625H37.2628V11.6519ZM27.4807 15.5251L31.147 11.6519H35.965V18.9625H34.5861V23.7718H27.4645V15.5251H27.4807ZM26.0207 11.6519V23.7879H18.9152V11.6519H26.0207ZM6.45636 25.0628L15.3301 11.6519H17.6174V20.3343L14.6163 25.0628H38.6418V22.0772L49.5595 28.5326L38.6418 35.0847V32.1314H6.45636V25.0628ZM26.0207 33.4063V39.4582H18.9152V33.4063H26.0207ZM35.9813 44.6225H31.1632L28.892 42.234V44.6225H15.4436V41.5723L13.1562 39.9262L10.4795 41.8628L11.5016 38.732L8.82484 36.7954H12.1342L13.1562 33.6646L14.1783 36.7954H17.4876L14.8109 38.732L15.4761 40.7654H27.4807V33.4063H34.6024V37.7153H35.9813V44.6225ZM42.0809 44.6225H37.2791V37.7314H38.658V36.6017L45.7472 32.3251V40.7331L42.0809 44.6225Z" fill="white"/>
<path d="M20.2131 28.0807H18.5908V29.1458H20.2131V28.0807Z" fill="white"/>
<path d="M16.498 29.1458H17.082V29.7268H15.6869V27.4836H17.0658V27.8386H18.1365V26.951L17.5849 26.4023H15.1678L14.6162 26.951V30.2432L15.2002 30.7919H17.6011L18.1689 30.2432V28.0646H16.498V29.1458Z" fill="white"/>
<path d="M21.7218 28.0968V27.4997H23.1169V27.8386H24.22V26.951L23.636 26.4023H21.1702L20.6349 26.951V28.581L21.2189 29.162H23.0845V29.7268H21.7056V29.3879H20.6187V30.2594L21.1864 30.7919H23.6523L24.22 30.2594V28.6617L23.6685 28.0968H21.7218Z" fill="white"/>
<path d="M27.2539 28.0807H25.875V26.4023H24.7881V30.8081H25.875V29.162H27.2539V30.8081H28.3408V26.4023H27.2539V28.0807Z" fill="white"/>
<path d="M29.4926 26.4023L28.9248 26.9672V30.2432V30.2594L29.4601 30.7919H31.8935L32.4613 30.2432V26.9672L31.8935 26.4023H29.4926ZM31.3582 29.7268H29.9955V27.4836H31.3582V29.7268Z" fill="white"/>
<path d="M33.5967 26.4023L33.0127 26.951V30.2432L33.548 30.7919H36.0139L36.5654 30.2432V29.1458H35.511V29.7268H34.132V27.4997H35.511V28.0646H36.5816V26.951L36.0301 26.4023H33.5967Z" fill="white"/>
<path d="M40.7347 30.7919L39.1936 28.5971L40.7671 26.4023H39.4369L38.2527 28.0161V26.4023H37.1333V30.7919H38.2527V29.2104L39.4207 30.7919H40.7347Z" fill="white"/>
<path d="M41.7243 29.0006L41.2701 30.3885L42.4543 29.5331L43.6223 30.3885L43.1681 29.0006L44.3523 28.1452H42.8923L42.4543 26.7735L42.0001 28.1452H40.54L41.7243 29.0006Z" fill="#BF2B2A"/>
<path d="M12.556 28.1452L12.1018 26.7735L11.6475 28.1452H10.1875L11.3717 29.0006L10.9175 30.3885L12.1018 29.5331L13.286 30.3885L12.8318 29.0006L13.9998 28.1452H12.556Z" fill="#BF2B2A"/>
</g>
</g>
<defs>
<clipPath id="clip0_1981_166">
<rect width="56" height="56" fill="white"/>
</clipPath>
<clipPath id="clip1_1981_166">
<rect width="56" height="56" fill="white"/>
</clipPath>
</defs>
</svg>
